<svg xmlns="http://www.w3.org/2000/svg" xmlns:xlink="http://www.w3.org/1999/xlink" contentStyleType="text/css" data-diagram-type="CHEN_EER" height="660px" preserveAspectRatio="none" style="width:1427px;height:660px;background:#FFFFFF;" version="1.1" viewBox="0 0 1427 660" width="1427px" zoomAndPan="magnify"><defs/><g><g id="User"><rect fill="#F1F1F1" height="36.2969" style="stroke:#181818;stroke-width:0.5;" width="51.9102" x="194.01" y="238.37"/><text fill="#000000" font-family="sans-serif" font-size="14" lengthAdjust="spacing" textLength="31.9102" x="204.01" y="261.3651">User</text></g><g id="User.User ID"><ellipse cx="69.513" cy="96.5236" fill="#F1F1F1" rx="39.253" ry="14.5236" style="stroke:#181818;stroke-width:0.5;"/><text fill="#000000" font-family="sans-serif" font-size="14" lengthAdjust="spacing" text-decoration="underline" textLength="51.2695" x="43.8783" y="100.9951">User ID</text></g><g id="User.Name"><ellipse cx="69.5054" cy="160.5236" fill="#F1F1F1" rx="32.2054" ry="14.5236" style="stroke:#181818;stroke-width:0.5;"/><text fill="#000000" font-family="sans-serif" font-size="14" lengthAdjust="spacing" textLength="41.3027" x="48.8541" y="164.9951">Name</text></g><g id="User.Username"><ellipse cx="69.5082" cy="224.5236" fill="#F1F1F1" rx="53.6382" ry="14.5236" style="stroke:#181818;stroke-width:0.5;"/><text fill="#000000" font-family="sans-serif" font-size="14" lengthAdjust="spacing" textLength="71.6133" x="33.7016" y="228.9951">Username</text></g><g id="User.Email"><ellipse cx="69.5053" cy="288.5236" fill="#F1F1F1" rx="30.4653" ry="14.5236" style="stroke:#181818;stroke-width:0.5;"/><text fill="#000000" font-family="sans-serif" font-size="14" lengthAdjust="spacing" textLength="38.8418" x="50.0844" y="292.9951">Email</text></g><g id="User.Date of Birth"><ellipse cx="69.5069" cy="353.5214" fill="#F1F1F1" rx="63.5069" ry="15.1014" style="stroke:#181818;stroke-width:0.5;"/><text fill="#000000" font-family="sans-serif" font-size="14" lengthAdjust="spacing" textLength="89.4688" x="24.7726" y="357.4151">Date of Birth</text></g><g id="User.Password"><ellipse cx="69.5083" cy="418.5236" fill="#F1F1F1" rx="49.8583" ry="14.5236" style="stroke:#181818;stroke-width:0.5;"/><text fill="#000000" font-family="sans-serif" font-size="14" lengthAdjust="spacing" textLength="66.2676" x="36.3745" y="422.9951">Password</text></g><g id="Household"><rect fill="#F1F1F1" height="36.2969" style="stroke:#181818;stroke-width:0.5;" width="94.0879" x="782" y="227.37"/><text fill="#000000" font-family="sans-serif" font-size="14" lengthAdjust="spacing" textLength="74.0879" x="792" y="250.3651">Household</text></g><g id="Household.Household ID"><ellipse cx="656.0121" cy="234.5184" fill="#F1F1F1" rx="64.9921" ry="15.3984" style="stroke:#181818;stroke-width:0.5;"/><text fill="#000000" font-family="sans-serif" font-size="14" lengthAdjust="spacing" text-decoration="underline" textLength="93.4473" x="609.2885" y="238.1151">Household ID</text></g><g id="Household.Members"><ellipse cx="656.007" cy="299.5236" fill="#F1F1F1" rx="48.877" ry="14.5236" style="stroke:#181818;stroke-width:0.5;"/><text fill="#000000" font-family="sans-serif" font-size="14" lengthAdjust="spacing" textLength="64.8799" x="623.5671" y="303.9951">Members</text></g><g id="Items"><rect fill="#F1F1F1" height="36.2969" style="stroke:#181818;stroke-width:0.5;" width="59.1631" x="1358.12" y="162.37"/><text fill="#000000" font-family="sans-serif" font-size="14" lengthAdjust="spacing" textLength="39.1631" x="1368.12" y="185.3651">Items</text></g><g id="Items.Item ID"><ellipse cx="1228.104" cy="297.5236" fill="#F1F1F1" rx="39.224" ry="14.5236" style="stroke:#181818;stroke-width:0.5;"/><text fill="#000000" font-family="sans-serif" font-size="14" lengthAdjust="spacing" text-decoration="underline" textLength="51.2285" x="1202.4898" y="301.9951">Item ID</text></g><g id="Items.Item Name"><ellipse cx="1228.0971" cy="361.5236" fill="#F1F1F1" rx="57.8871" ry="14.5236" style="stroke:#181818;stroke-width:0.5;"/><text fill="#000000" font-family="sans-serif" font-size="14" lengthAdjust="spacing" textLength="77.6221" x="1189.2861" y="365.9951">Item Name</text></g><g id="Items.Quantity"><ellipse cx="1228.0986" cy="20.5236" fill="#F1F1F1" rx="45.7786" ry="14.5236" style="stroke:#181818;stroke-width:0.5;"/><text fill="#000000" font-family="sans-serif" font-size="14" lengthAdjust="spacing" textLength="60.498" x="1197.8496" y="24.9951">Quantity</text></g><g id="Items.Item In Date"><ellipse cx="1228.0954" cy="84.5171" fill="#F1F1F1" rx="62.6854" ry="14.9371" style="stroke:#181818;stroke-width:0.5;"/><text fill="#000000" font-family="sans-serif" font-size="14" lengthAdjust="spacing" textLength="87.2334" x="1184.4787" y="88.5751">Item In Date</text></g><g id="Items.Owner"><ellipse cx="1228.1032" cy="148.5236" fill="#F1F1F1" rx="35.3232" ry="14.5236" style="stroke:#181818;stroke-width:0.5;"/><text fill="#000000" font-family="sans-serif" font-size="14" lengthAdjust="spacing" textLength="45.7119" x="1205.2472" y="152.9951">Owner</text></g><g id="Member"><polygon fill="#F1F1F1" points="417.48,179.5251,473.7502,151.39,530.0204,179.5251,473.7502,207.6602" style="stroke:#181818;stroke-width:0.5;"/><text fill="#000000" font-family="sans-serif" font-size="14" lengthAdjust="spacing" textLength="57.5859" x="444.9572" y="184.3718">Member</text></g><g id="Member.Role"><ellipse cx="331.696" cy="264.5236" fill="#F1F1F1" rx="24.776" ry="14.5236" style="stroke:#181818;stroke-width:0.5;"/><text fill="#000000" font-family="sans-serif" font-size="14" lengthAdjust="spacing" textLength="30.7959" x="316.298" y="268.9951">Role</text></g><g id="Recipe"><rect fill="#F1F1F1" height="36.2969" style="stroke:#181818;stroke-width:0.5;" width="67.4277" x="1353.99" y="524.37"/><text fill="#000000" font-family="sans-serif" font-size="14" lengthAdjust="spacing" textLength="47.4277" x="1363.99" y="547.3651">Recipe</text></g><g id="Recipe.Recipe ID"><ellipse cx="1228.0956" cy="510.5236" fill="#F1F1F1" rx="50.2256" ry="14.5236" style="stroke:#181818;stroke-width:0.5;"/><text fill="#000000" font-family="sans-serif" font-size="14" lengthAdjust="spacing" text-decoration="underline" textLength="66.7871" x="1194.7021" y="514.9951">Recipe ID</text></g><g id="Recipe.Recipe Body"><ellipse cx="1228.1004" cy="574.5161" fill="#F1F1F1" rx="62.6804" ry="14.9361" style="stroke:#181818;stroke-width:0.5;"/><text fill="#000000" font-family="sans-serif" font-size="14" lengthAdjust="spacing" textLength="87.2197" x="1184.4905" y="578.5751">Recipe Body</text></g><g id="Recipe.Recipe Name"><ellipse cx="1228.1017" cy="639.5183" fill="#F1F1F1" rx="64.8917" ry="15.3783" style="stroke:#181818;stroke-width:0.5;"/><text fill="#000000" font-family="sans-serif" font-size="14" lengthAdjust="spacing" textLength="93.1807" x="1181.5114" y="643.1351">Recipe Name</text></g><g id="Holds"><polygon fill="#F1F1F1" points="1008.09,319.5194,1055.1488,295.99,1102.2075,319.5194,1055.1488,343.0488" style="stroke:#181818;stroke-width:0.5;"/><text fill="#000000" font-family="sans-serif" font-size="14" lengthAdjust="spacing" textLength="39.1631" x="1035.5672" y="324.3661">Holds</text></g><!--link User/User ID to User--><g class="link" data-entity-1="User.User ID" data-entity-2="User" data-source-line="4" data-uid="lnk4" id="link_User.User ID_User"><path d="M97.9,106.9 C109.57,112.2 122.81,119.45 133.01,128.52 C169.24,160.7 197.21,211.36 210.49,238.28" fill="none" id="User/User ID-User" style="stroke:#181818;stroke-width:1;"/></g><!--link User/Name to User--><g class="link" data-entity-1="User.Name" data-entity-2="User" data-source-line="5" data-uid="lnk6" id="link_User.Name_User"><path d="M92.99,170.9 C105.11,176.78 120.18,184.54 133.01,192.52 C155.45,206.48 179.44,224.64 196.36,238.05" fill="none" id="User/Name-User" style="stroke:#181818;stroke-width:1;"/></g><!--link User/Username to User--><g class="link" data-entity-1="User.Username" data-entity-2="User" data-source-line="6" data-uid="lnk8" id="link_User.Username_User"><path d="M112.26,233.52 C138.5,239.18 171.49,246.29 193.79,251.09" fill="none" id="User/Username-User" style="stroke:#181818;stroke-width:1;"/></g><!--link User/Email to User--><g class="link" data-entity-1="User.Email" data-entity-2="User" data-source-line="7" data-uid="lnk10" id="link_User.Email_User"><path d="M97.74,282.65 C125.19,276.73 167.23,267.67 193.89,261.93" fill="none" id="User/Email-User" style="stroke:#181818;stroke-width:1;"/></g><!--link User/Date of Birth to User--><g class="link" data-entity-1="User.Date of Birth" data-entity-2="User" data-source-line="8" data-uid="lnk12" id="link_User.Date of Birth_User"><path d="M98.72,339.8 C109.64,334.18 122.12,327.4 133.01,320.52 C155.36,306.42 179.36,288.27 196.31,274.91" fill="none" id="User/Date of Birth-User" style="stroke:#181818;stroke-width:1;"/></g><!--link User/Password to User--><g class="link" data-entity-1="User.Password" data-entity-2="User" data-source-line="9" data-uid="lnk14" id="link_User.Password_User"><path d="M100.77,406.87 C111.71,401.71 123.66,394.89 133.01,386.52 C169.51,353.87 197.37,302.4 210.56,275.05" fill="none" id="User/Password-User" style="stroke:#181818;stroke-width:1;"/></g><!--link Household/Household ID to Household--><g class="link" data-entity-1="Household.Household ID" data-entity-2="Household" data-source-line="12" data-uid="lnk17" id="link_Household.Household ID_Household"><path d="M719.24,238.52 C739.87,239.85 762.46,241.3 781.68,242.54" fill="none" id="Household/Household ID-Household" style="stroke:#181818;stroke-width:1;"/></g><!--link Household/Members to Household--><g class="link" data-entity-1="Household.Members" data-entity-2="Household" data-source-line="13" data-uid="lnk19" id="link_Household.Members_Household"><path d="M690.39,288.98 C716.45,280.76 752.94,269.23 781.81,260.12" fill="none" id="Household/Members-Household" style="stroke:#181818;stroke-width:1;"/></g><!--link Items/Item ID to Items--><g class="link" data-entity-1="Items.Item ID" data-entity-2="Items" data-source-line="16" data-uid="lnk22" id="link_Items.Item ID_Items"><path d="M1250.97,285.51 C1270.72,274.3 1300.23,256.63 1323.99,238.52 C1339.91,226.38 1356.48,210.92 1368.59,199.01" fill="none" id="Items/Item ID-Items" style="stroke:#181818;stroke-width:1;"/></g><!--link Items/Item Name to Items--><g class="link" data-entity-1="Items.Item Name" data-entity-2="Items" data-source-line="17" data-uid="lnk24" id="link_Items.Item Name_Items"><path d="M1261.78,349.34 C1272.51,344.3 1283.99,337.69 1292.99,329.52 C1335.31,291.12 1365.81,229.32 1379.17,198.79" fill="none" id="Items/Item Name-Items" style="stroke:#181818;stroke-width:1;"/></g><!--link Items/Quantity to Items--><g class="link" data-entity-1="Items.Quantity" data-entity-2="Items" data-source-line="18" data-uid="lnk26" id="link_Items.Quantity_Items"><path d="M1258.53,31.72 C1270.03,36.96 1282.85,43.95 1292.99,52.52 C1331.07,84.7 1362.15,135.36 1377.09,162.28" fill="none" id="Items/Quantity-Items" style="stroke:#181818;stroke-width:1;"/></g><!--link Items/Item In Date to Items--><g class="link" data-entity-1="Items.Item In Date" data-entity-2="Items" data-source-line="19" data-uid="lnk28" id="link_Items.Item In Date_Items"><path d="M1258.16,98.05 C1269.24,103.47 1281.87,109.98 1292.99,116.52 C1316.93,130.61 1342.93,148.59 1361.46,161.91" fill="none" id="Items/Item In Date-Items" style="stroke:#181818;stroke-width:1;"/></g><!--link Items/Owner to Items--><g class="link" data-entity-1="Items.Owner" data-entity-2="Items" data-source-line="20" data-uid="lnk30" id="link_Items.Owner_Items"><path d="M1260.24,154.84 C1288.58,160.6 1330.11,169.03 1357.76,174.64" fill="none" id="Items/Owner-Items" style="stroke:#181818;stroke-width:1;"/></g><!--link Member/Role to Member--><g class="link" data-entity-1="Member.Role" data-entity-2="Member" data-source-line="23" data-uid="lnk33" id="link_Member.Role_Member"><path d="M349.87,254.1 C374.27,239.29 419.12,212.07 447.36,194.93" fill="none" id="Member/Role-Member" style="stroke:#181818;stroke-width:1;"/></g><!--link Recipe/Recipe ID to Recipe--><g class="link" data-entity-1="Recipe.Recipe ID" data-entity-2="Recipe" data-source-line="26" data-uid="lnk36" id="link_Recipe.Recipe ID_Recipe"><path d="M1270.1,518.85 C1296.09,524.12 1329.28,530.86 1353.59,535.8" fill="none" id="Recipe/Recipe ID-Recipe" style="stroke:#181818;stroke-width:1;"/></g><!--link Recipe/Recipe Body to Recipe--><g class="link" data-entity-1="Recipe.Recipe Body" data-entity-2="Recipe" data-source-line="27" data-uid="lnk38" id="link_Recipe.Recipe Body_Recipe"><path d="M1276.81,564.83 C1301.64,559.79 1331.36,553.76 1353.64,549.24" fill="none" id="Recipe/Recipe Body-Recipe" style="stroke:#181818;stroke-width:1;"/></g><!--link Recipe/Recipe Name to Recipe--><g class="link" data-entity-1="Recipe.Recipe Name" data-entity-2="Recipe" data-source-line="28" data-uid="lnk40" id="link_Recipe.Recipe Name_Recipe"><path d="M1258.13,625.47 C1269.2,619.87 1281.84,613.17 1292.99,606.52 C1316.85,592.29 1342.85,574.32 1361.4,561.05" fill="none" id="Recipe/Recipe Name-Recipe" style="stroke:#181818;stroke-width:1;"/></g><!--link User to Member--><g class="link" data-entity-1="User" data-entity-2="Member" data-source-line="33" data-uid="lnk42" id="link_User_Member"><path d="M246.19,248.7 C278.63,238.65 336.72,220.69 386.48,205.52 C403.38,200.37 422.18,194.7 437.89,189.97" fill="none" id="User-Member" style="stroke:#181818;stroke-width:1;"/><text fill="#000000" font-family="sans-serif" font-size="11" lengthAdjust="spacing" textLength="8.2285" x="327.7" y="212.7304">N</text></g><!--link Member to Household--><g class="link" data-entity-1="Member" data-entity-2="Household" data-source-line="34" data-uid="lnk43" id="link_Member_Household"><path d="M530.29,179.75 C580.72,181.06 656.79,185.84 721,201.52 C745.01,207.39 770.66,217.77 790.83,226.98" fill="none" id="Member-Household" style="stroke:#181818;stroke-width:1;"/><text fill="#000000" font-family="sans-serif" font-size="11" lengthAdjust="spacing" textLength="9.4907" x="651.51" y="180.7304">M</text></g><!--link Holds to Items--><g class="link" data-entity-1="Holds" data-entity-2="Items" data-source-line="35" data-uid="lnk44" id="link_Holds_Items"><path d="M1078.38,307.46 C1099.81,296.03 1133.3,278.71 1163.21,265.52 C1231.77,235.29 1314.76,205.43 1357.74,190.45" fill="none" id="Holds-Items" style="stroke:#181818;stroke-width:1;"/><text fill="#000000" font-family="sans-serif" font-size="11" lengthAdjust="spacing" textLength="8.2285" x="1224.1" y="211.7304">N</text></g><!--link User to Holds--><g class="link" data-entity-1="User" data-entity-2="Holds" data-source-line="37" data-uid="lnk45" id="link_User_Holds"><path d="M229.49,275.16 C244.95,305.82 280.68,363.52 330.7,363.52 C330.7,363.52 330.7,363.52 943.09,363.52 C976.89,363.52 1012.67,345.68 1034.21,332.72" fill="none" id="User-Holds" style="stroke:#181818;stroke-width:1;"/><text fill="#000000" font-family="sans-serif" font-size="11" lengthAdjust="spacing" textLength="8.2285" x="652.01" y="360.7304">N</text></g><!--link Holds to Recipe--><g class="link" data-entity-1="Holds" data-entity-2="Recipe" data-source-line="38" data-uid="lnk46" id="link_Holds_Recipe"><path d="M1072.44,334.56 C1092.8,352.96 1129.12,384.49 1163.21,407.52 C1217.68,444.34 1236.93,444.16 1292.99,478.52 C1316.51,492.94 1342.33,510.73 1360.9,523.89" fill="none" id="Holds-Recipe" style="stroke:#181818;stroke-width:1;"/><text fill="#000000" font-family="sans-serif" font-size="11" lengthAdjust="spacing" textLength="9.4907" x="1223.6" y="404.7304">M</text></g><!--link Household to Holds--><g class="link" data-entity-1="Household" data-entity-2="Holds" data-source-line="39" data-uid="lnk47" id="link_Household_Holds"><path d="M876.48,260.85 C921.48,275.71 988.28,297.77 1025.84,310.17" fill="none" id="Household-Holds" style="stroke:#181818;stroke-width:1;"/><text fill="#000000" font-family="sans-serif" font-size="11" lengthAdjust="spacing" textLength="8.2285" x="938.09" y="278.7304">N</text></g><!--SRC=[NLBBRi8m4BplL-mH3a45jHL2224ABL0251hk9bc8HM8Zsm6XYd-lOnA2y6bVipCxSbyRfamOau24TWQDHCNtiS68AmeDbmA0XE7cWe4cXN-0zhbmCiHkzq2NNi_LvYobUrEKoIXbF77Ha1b2kSC1LoPsbINJ-YnL1DUIOYmpJR5CeeAdof_8V4gtf7I5d1XATO7AusU0gzqb_cJCmHx6XHFe2ekp86LNAqfOxe2E-R5WB1XMCg6AUqKXFrBPkYLFz4Lr8AFBO-u4FH6DxRdv9LS0PxCtzmfoA3HulbSv0xVvVCfvy81odR9lCJTIg4ojXg1F8dA_09Q9zIRmPtYo1bjHs6oqNbflZVQM36lM0d4GyYmmbEcH9uI6frI7sjToXbfcAYJxSxHHV9lb5zLXoauCLvd8vpguE9AO3h_B0ex4YIifKkiaJ3T-DV3-wWsumJKfAmCtFWnfnxB4M4Ge8oxs7Gn-Fxqsp9ZOPsnlTrln7zBkLHVRM_y3]--></g></svg>