<svg xmlns="http://www.w3.org/2000/svg" xmlns:xlink="http://www.w3.org/1999/xlink" contentStyleType="text/css" data-diagram-type="CHEN_EER" height="447px" preserveAspectRatio="none" style="width:1980px;height:447px;background:#FFFFFF;" version="1.1" viewBox="0 0 1980 447" width="1980px" zoomAndPan="magnify"><defs/><g><g id="User"><rect fill="#F1F1F1" height="36.2969" style="stroke:#181818;stroke-width:0.5;" width="51.9102" x="194.01" y="246.79"/><text fill="#000000" font-family="sans-serif" font-size="14" lengthAdjust="spacing" textLength="31.9102" x="204.01" y="269.7851">User</text></g><g id="User.User ID"><ellipse cx="69.513" cy="104.9436" fill="#F1F1F1" rx="39.253" ry="14.5236" style="stroke:#181818;stroke-width:0.5;"/><text fill="#000000" font-family="sans-serif" font-size="14" lengthAdjust="spacing" text-decoration="underline" textLength="51.2695" x="43.8783" y="109.4151">User ID</text></g><g id="User.Name"><ellipse cx="69.5054" cy="168.9436" fill="#F1F1F1" rx="32.2054" ry="14.5236" style="stroke:#181818;stroke-width:0.5;"/><text fill="#000000" font-family="sans-serif" font-size="14" lengthAdjust="spacing" textLength="41.3027" x="48.8541" y="173.4151">Name</text></g><g id="User.Username"><ellipse cx="69.5082" cy="232.9436" fill="#F1F1F1" rx="53.6382" ry="14.5236" style="stroke:#181818;stroke-width:0.5;"/><text fill="#000000" font-family="sans-serif" font-size="14" lengthAdjust="spacing" textLength="71.6133" x="33.7016" y="237.4151">Username</text></g><g id="User.Email"><ellipse cx="69.5053" cy="296.9436" fill="#F1F1F1" rx="30.4653" ry="14.5236" style="stroke:#181818;stroke-width:0.5;"/><text fill="#000000" font-family="sans-serif" font-size="14" lengthAdjust="spacing" textLength="38.8418" x="50.0844" y="301.4151">Email</text></g><g id="User.Date of Birth"><ellipse cx="69.5069" cy="361.9414" fill="#F1F1F1" rx="63.5069" ry="15.1014" style="stroke:#181818;stroke-width:0.5;"/><text fill="#000000" font-family="sans-serif" font-size="14" lengthAdjust="spacing" textLength="89.4688" x="24.7726" y="365.8351">Date of Birth</text></g><g id="User.Password"><ellipse cx="69.5083" cy="426.9436" fill="#F1F1F1" rx="49.8583" ry="14.5236" style="stroke:#181818;stroke-width:0.5;"/><text fill="#000000" font-family="sans-serif" font-size="14" lengthAdjust="spacing" textLength="66.2676" x="36.3745" y="431.4151">Password</text></g><g id="Household"><rect fill="#F1F1F1" height="36.2969" style="stroke:#181818;stroke-width:0.5;" width="94.0879" x="782" y="289.79"/><text fill="#000000" font-family="sans-serif" font-size="14" lengthAdjust="spacing" textLength="74.0879" x="792" y="312.7851">Household</text></g><g id="Household.Household ID"><ellipse cx="656.0121" cy="242.9384" fill="#F1F1F1" rx="64.9921" ry="15.3984" style="stroke:#181818;stroke-width:0.5;"/><text fill="#000000" font-family="sans-serif" font-size="14" lengthAdjust="spacing" text-decoration="underline" textLength="93.4473" x="609.2885" y="246.5351">Household ID</text></g><g id="Household.Members"><ellipse cx="656.007" cy="307.9436" fill="#F1F1F1" rx="48.877" ry="14.5236" style="stroke:#181818;stroke-width:0.5;"/><text fill="#000000" font-family="sans-serif" font-size="14" lengthAdjust="spacing" textLength="64.8799" x="623.5671" y="312.4151">Members</text></g><g id="Pantry"><rect fill="#F1F1F1" height="36.2969" style="stroke:#181818;stroke-width:0.5;" width="65.4248" x="1354.99" y="345.79"/><text fill="#000000" font-family="sans-serif" font-size="14" lengthAdjust="spacing" textLength="45.4248" x="1364.99" y="368.7851">Pantry</text></g><g id="Pantry.Pantry ID"><ellipse cx="1228.0993" cy="298.9436" fill="#F1F1F1" rx="48.8093" ry="14.5236" style="stroke:#181818;stroke-width:0.5;"/><text fill="#000000" font-family="sans-serif" font-size="14" lengthAdjust="spacing" text-decoration="underline" textLength="64.7842" x="1195.7072" y="303.4151">Pantry ID</text></g><g id="Pantry.Pantry Name"><ellipse cx="1228.1014" cy="363.9383" fill="#F1F1F1" rx="64.1414" ry="15.2283" style="stroke:#181818;stroke-width:0.5;"/><text fill="#000000" font-family="sans-serif" font-size="14" lengthAdjust="spacing" textLength="91.1777" x="1182.5125" y="367.7051">Pantry Name</text></g><g id="Items"><rect fill="#F1F1F1" height="36.2969" style="stroke:#181818;stroke-width:0.5;" width="59.1631" x="1915.08" y="185.79"/><text fill="#000000" font-family="sans-serif" font-size="14" lengthAdjust="spacing" textLength="39.1631" x="1925.08" y="208.7851">Items</text></g><g id="Items.Item ID"><ellipse cx="1791.404" cy="43.9436" fill="#F1F1F1" rx="39.224" ry="14.5236" style="stroke:#181818;stroke-width:0.5;"/><text fill="#000000" font-family="sans-serif" font-size="14" lengthAdjust="spacing" text-decoration="underline" textLength="51.2285" x="1765.7898" y="48.4151">Item ID</text></g><g id="Items.Item Name"><ellipse cx="1791.3971" cy="107.9436" fill="#F1F1F1" rx="57.8871" ry="14.5236" style="stroke:#181818;stroke-width:0.5;"/><text fill="#000000" font-family="sans-serif" font-size="14" lengthAdjust="spacing" textLength="77.6221" x="1752.5861" y="112.4151">Item Name</text></g><g id="Items.Quantity"><ellipse cx="1791.3986" cy="171.9436" fill="#F1F1F1" rx="45.7786" ry="14.5236" style="stroke:#181818;stroke-width:0.5;"/><text fill="#000000" font-family="sans-serif" font-size="14" lengthAdjust="spacing" textLength="60.498" x="1761.1496" y="176.4151">Quantity</text></g><g id="Items.Item In Date"><ellipse cx="1791.3954" cy="235.9371" fill="#F1F1F1" rx="62.6854" ry="14.9371" style="stroke:#181818;stroke-width:0.5;"/><text fill="#000000" font-family="sans-serif" font-size="14" lengthAdjust="spacing" textLength="87.2334" x="1747.7787" y="239.9951">Item In Date</text></g><g id="Items.Owner"><ellipse cx="1791.4032" cy="299.9436" fill="#F1F1F1" rx="35.3232" ry="14.5236" style="stroke:#181818;stroke-width:0.5;"/><text fill="#000000" font-family="sans-serif" font-size="14" lengthAdjust="spacing" textLength="45.7119" x="1768.5472" y="304.4151">Owner</text></g><g id="Member"><polygon fill="#F1F1F1" points="417.48,330.9351,473.7502,302.8,530.0204,330.9351,473.7502,359.0702" style="stroke:#181818;stroke-width:0.5;"/><text fill="#000000" font-family="sans-serif" font-size="14" lengthAdjust="spacing" textLength="57.5859" x="444.9572" y="335.7818">Member</text></g><g id="Member.Role"><ellipse cx="331.696" cy="266.9436" fill="#F1F1F1" rx="24.776" ry="14.5236" style="stroke:#181818;stroke-width:0.5;"/><text fill="#000000" font-family="sans-serif" font-size="14" lengthAdjust="spacing" textLength="30.7959" x="316.298" y="271.4151">Role</text></g><g id="Recipe"><rect fill="#F1F1F1" height="36.2969" style="stroke:#181818;stroke-width:0.5;" width="67.4277" x="1353.99" y="99.79"/><text fill="#000000" font-family="sans-serif" font-size="14" lengthAdjust="spacing" textLength="47.4277" x="1363.99" y="122.7851">Recipe</text></g><g id="Recipe.Recipe ID"><ellipse cx="1228.0956" cy="234.9436" fill="#F1F1F1" rx="50.2256" ry="14.5236" style="stroke:#181818;stroke-width:0.5;"/><text fill="#000000" font-family="sans-serif" font-size="14" lengthAdjust="spacing" text-decoration="underline" textLength="66.7871" x="1194.7021" y="239.4151">Recipe ID</text></g><g id="Recipe.Recipe Body"><ellipse cx="1228.1004" cy="20.9361" fill="#F1F1F1" rx="62.6804" ry="14.9361" style="stroke:#181818;stroke-width:0.5;"/><text fill="#000000" font-family="sans-serif" font-size="14" lengthAdjust="spacing" textLength="87.2197" x="1184.4905" y="24.9951">Recipe Body</text></g><g id="Recipe.Recipe Name"><ellipse cx="1228.1017" cy="85.9383" fill="#F1F1F1" rx="64.8917" ry="15.3783" style="stroke:#181818;stroke-width:0.5;"/><text fill="#000000" font-family="sans-serif" font-size="14" lengthAdjust="spacing" textLength="93.1807" x="1181.5114" y="89.5551">Recipe Name</text></g><g id="Holds"><polygon fill="#F1F1F1" points="1008.09,157.9394,1055.1488,134.41,1102.2075,157.9394,1055.1488,181.4688" style="stroke:#181818;stroke-width:0.5;"/><text fill="#000000" font-family="sans-serif" font-size="14" lengthAdjust="spacing" textLength="39.1631" x="1035.5672" y="162.7861">Holds</text></g><g id="Contains"><polygon fill="#F1F1F1" points="1551.42,363.9333,1609.5666,334.86,1667.7133,363.9333,1609.5666,393.0066" style="stroke:#181818;stroke-width:0.5;"/><text fill="#000000" font-family="sans-serif" font-size="14" lengthAdjust="spacing" textLength="61.3389" x="1578.8972" y="368.78">Contains</text></g><g id="Owns"><polygon fill="#F1F1F1" points="1008.35,364.9378,1055.1456,341.54,1101.9411,364.9378,1055.1456,388.3356" style="stroke:#181818;stroke-width:0.5;"/><text fill="#000000" font-family="sans-serif" font-size="14" lengthAdjust="spacing" textLength="38.6367" x="1035.8272" y="369.7845">Owns</text></g><!--link User/User ID to User--><g class="link" data-entity-1="User.User ID" data-entity-2="User" data-source-line="4" data-uid="lnk4" id="link_User.User ID_User"><path d="M97.9,115.31 C109.57,120.61 122.81,127.87 133.01,136.94 C169.24,169.11 197.21,219.78 210.49,246.7" fill="none" id="User/User ID-User" style="stroke:#181818;stroke-width:1;"/></g><!--link User/Name to User--><g class="link" data-entity-1="User.Name" data-entity-2="User" data-source-line="5" data-uid="lnk6" id="link_User.Name_User"><path d="M92.99,179.32 C105.11,185.19 120.18,192.95 133.01,200.94 C155.45,214.89 179.44,233.06 196.36,246.47" fill="none" id="User/Name-User" style="stroke:#181818;stroke-width:1;"/></g><!--link User/Username to User--><g class="link" data-entity-1="User.Username" data-entity-2="User" data-source-line="6" data-uid="lnk8" id="link_User.Username_User"><path d="M112.26,241.94 C138.5,247.59 171.49,254.7 193.79,259.51" fill="none" id="User/Username-User" style="stroke:#181818;stroke-width:1;"/></g><!--link User/Email to User--><g class="link" data-entity-1="User.Email" data-entity-2="User" data-source-line="7" data-uid="lnk10" id="link_User.Email_User"><path d="M97.74,291.07 C125.19,285.15 167.23,276.09 193.89,270.34" fill="none" id="User/Email-User" style="stroke:#181818;stroke-width:1;"/></g><!--link User/Date of Birth to User--><g class="link" data-entity-1="User.Date of Birth" data-entity-2="User" data-source-line="8" data-uid="lnk12" id="link_User.Date of Birth_User"><path d="M98.72,348.21 C109.64,342.6 122.12,335.81 133.01,328.94 C155.36,314.84 179.36,296.69 196.31,283.32" fill="none" id="User/Date of Birth-User" style="stroke:#181818;stroke-width:1;"/></g><!--link User/Password to User--><g class="link" data-entity-1="User.Password" data-entity-2="User" data-source-line="9" data-uid="lnk14" id="link_User.Password_User"><path d="M100.77,415.28 C111.71,410.12 123.66,403.31 133.01,394.94 C169.51,362.28 197.37,310.82 210.56,283.46" fill="none" id="User/Password-User" style="stroke:#181818;stroke-width:1;"/></g><!--link Household/Household ID to Household--><g class="link" data-entity-1="Household.Household ID" data-entity-2="Household" data-source-line="12" data-uid="lnk17" id="link_Household.Household ID_Household"><path d="M691.62,256.09 C717.58,265.96 753.39,279.57 781.81,290.37" fill="none" id="Household/Household ID-Household" style="stroke:#181818;stroke-width:1;"/></g><!--link Household/Members to Household--><g class="link" data-entity-1="Household.Members" data-entity-2="Household" data-source-line="13" data-uid="lnk19" id="link_Household.Members_Household"><path d="M705.11,307.94 C729.12,307.94 758.03,307.94 781.78,307.94" fill="none" id="Household/Members-Household" style="stroke:#181818;stroke-width:1;"/></g><!--link Pantry/Pantry ID to Pantry--><g class="link" data-entity-1="Pantry.Pantry ID" data-entity-2="Pantry" data-source-line="16" data-uid="lnk22" id="link_Pantry.Pantry ID_Pantry"><path d="M1257.76,310.69 C1276.59,318.42 1301.76,328.76 1323.99,337.94 C1334.01,342.07 1344.93,346.6 1354.81,350.69" fill="none" id="Pantry/Pantry ID-Pantry" style="stroke:#181818;stroke-width:1;"/></g><!--link Pantry/Pantry Name to Pantry--><g class="link" data-entity-1="Pantry.Pantry Name" data-entity-2="Pantry" data-source-line="17" data-uid="lnk24" id="link_Pantry.Pantry Name_Pantry"><path d="M1292.29,363.94 C1313.7,363.94 1336.71,363.94 1354.66,363.94" fill="none" id="Pantry/Pantry Name-Pantry" style="stroke:#181818;stroke-width:1;"/></g><!--link Items/Item ID to Items--><g class="link" data-entity-1="Items.Item ID" data-entity-2="Items" data-source-line="20" data-uid="lnk27" id="link_Items.Item ID_Items"><path d="M1819.34,54.47 C1830.84,59.8 1843.92,67.03 1854.08,75.94 C1890.81,108.11 1920.18,158.32 1934.38,185.3" fill="none" id="Items/Item ID-Items" style="stroke:#181818;stroke-width:1;"/></g><!--link Items/Item Name to Items--><g class="link" data-entity-1="Items.Item Name" data-entity-2="Items" data-source-line="21" data-uid="lnk29" id="link_Items.Item Name_Items"><path d="M1819.57,120.99 C1830.49,126.5 1843.07,133.2 1854.08,139.94 C1877.06,154.01 1901.91,172 1919.59,185.31" fill="none" id="Items/Item Name-Items" style="stroke:#181818;stroke-width:1;"/></g><!--link Items/Quantity to Items--><g class="link" data-entity-1="Items.Quantity" data-entity-2="Items" data-source-line="22" data-uid="lnk31" id="link_Items.Quantity_Items"><path d="M1830.18,179.93 C1856.43,185.48 1890.88,192.77 1914.91,197.85" fill="none" id="Items/Quantity-Items" style="stroke:#181818;stroke-width:1;"/></g><!--link Items/Item In Date to Items--><g class="link" data-entity-1="Items.Item In Date" data-entity-2="Items" data-source-line="23" data-uid="lnk33" id="link_Items.Item In Date_Items"><path d="M1839.43,225.99 C1864.06,220.78 1893.44,214.56 1914.72,210.06" fill="none" id="Items/Item In Date-Items" style="stroke:#181818;stroke-width:1;"/></g><!--link Items/Owner to Items--><g class="link" data-entity-1="Items.Owner" data-entity-2="Items" data-source-line="24" data-uid="lnk35" id="link_Items.Owner_Items"><path d="M1815.38,288.99 C1827.17,283.13 1841.63,275.56 1854.08,267.94 C1877.06,253.86 1901.91,235.88 1919.59,222.56" fill="none" id="Items/Owner-Items" style="stroke:#181818;stroke-width:1;"/></g><!--link Member/Role to Member--><g class="link" data-entity-1="Member.Role" data-entity-2="Member" data-source-line="27" data-uid="lnk38" id="link_Member.Role_Member"><path d="M351.88,275.7 C375.48,286.48 415.79,304.91 443.32,317.49" fill="none" id="Member/Role-Member" style="stroke:#181818;stroke-width:1;"/></g><!--link Recipe/Recipe ID to Recipe--><g class="link" data-entity-1="Recipe.Recipe ID" data-entity-2="Recipe" data-source-line="30" data-uid="lnk41" id="link_Recipe.Recipe ID_Recipe"><path d="M1252.53,222.04 C1272.25,210.8 1300.85,193.58 1323.99,175.94 C1339.91,163.8 1356.48,148.33 1368.59,136.43" fill="none" id="Recipe/Recipe ID-Recipe" style="stroke:#181818;stroke-width:1;"/></g><!--link Recipe/Recipe Body to Recipe--><g class="link" data-entity-1="Recipe.Recipe Body" data-entity-2="Recipe" data-source-line="31" data-uid="lnk43" id="link_Recipe.Recipe Body_Recipe"><path d="M1258.19,34.42 C1269.27,39.84 1281.89,46.35 1292.99,52.94 C1317.34,67.38 1343.73,85.97 1362.28,99.57" fill="none" id="Recipe/Recipe Body-Recipe" style="stroke:#181818;stroke-width:1;"/></g><!--link Recipe/Recipe Name to Recipe--><g class="link" data-entity-1="Recipe.Recipe Name" data-entity-2="Recipe" data-source-line="32" data-uid="lnk45" id="link_Recipe.Recipe Name_Recipe"><path d="M1278.53,95.97 C1303.09,100.96 1332.08,106.85 1353.87,111.27" fill="none" id="Recipe/Recipe Name-Recipe" style="stroke:#181818;stroke-width:1;"/></g><!--link User to Member--><g class="link" data-entity-1="User" data-entity-2="Member" data-source-line="40" data-uid="lnk49" id="link_User_Member"><path d="M246.06,282.51 C262.58,293.15 285.1,305.98 306.92,312.94 C342.65,324.33 384.67,328.8 417.46,330.44" fill="none" id="User-Member" style="stroke:#181818;stroke-width:1;"/><text fill="#000000" font-family="sans-serif" font-size="11" lengthAdjust="spacing" textLength="8.2285" x="327.7" y="310.1504">N</text></g><!--link Member to Household--><g class="link" data-entity-1="Member" data-entity-2="Household" data-source-line="41" data-uid="lnk50" id="link_Member_Household"><path d="M511,340.94 C559.35,352.77 647.4,369.08 721,353.94 C746.76,348.64 773.96,336.86 794.49,326.55" fill="none" id="Member-Household" style="stroke:#181818;stroke-width:1;"/><text fill="#000000" font-family="sans-serif" font-size="11" lengthAdjust="spacing" textLength="9.4907" x="651.51" y="351.1504">M</text></g><!--link Household to Owns--><g class="link" data-entity-1="Household" data-entity-2="Owns" data-source-line="42" data-uid="lnk51" id="link_Household_Owns"><path d="M876.48,319.75 C920.45,330.93 985.25,347.41 1023.23,357.07" fill="none" id="Household-Owns" style="stroke:#181818;stroke-width:1;"/><text fill="#000000" font-family="sans-serif" font-size="11" lengthAdjust="spacing" textLength="6.9985" x="939.09" y="333.1504">1</text></g><!--link Owns to Pantry--><g class="link" data-entity-1="Owns" data-entity-2="Pantry" data-source-line="43" data-uid="lnk52" id="link_Owns_Pantry"><path d="M1077.84,377.38 C1098.88,388.68 1132.1,404.54 1163.21,410.94 C1219.7,422.56 1236.86,424.22 1292.99,410.94 C1316.37,405.4 1340.55,393.08 1358.5,382.44" fill="none" id="Owns-Pantry" style="stroke:#181818;stroke-width:1;"/><text fill="#000000" font-family="sans-serif" font-size="11" lengthAdjust="spacing" textLength="9.4907" x="1223.6" y="408.1504">M</text></g><!--link Pantry to Contains--><g class="link" data-entity-1="Pantry" data-entity-2="Contains" data-source-line="44" data-uid="lnk53" id="link_Pantry_Contains"><path d="M1420.67,363.94 C1454.62,363.94 1508.99,363.94 1550.53,363.94" fill="none" id="Pantry-Contains" style="stroke:#181818;stroke-width:1;"/><text fill="#000000" font-family="sans-serif" font-size="11" lengthAdjust="spacing" textLength="6.9985" x="1483.42" y="361.1504">1</text></g><!--link Contains to Items--><g class="link" data-entity-1="Contains" data-entity-2="Items" data-source-line="45" data-uid="lnk54" id="link_Contains_Items"><path d="M1653.17,371.71 C1704.67,378.78 1792.12,383.15 1854.08,345.94 C1901.31,317.57 1927.63,253.69 1938.17,222.2" fill="none" id="Contains-Items" style="stroke:#181818;stroke-width:1;"/><text fill="#000000" font-family="sans-serif" font-size="11" lengthAdjust="spacing" textLength="9.4907" x="1786.9" y="343.1504">M</text></g><!--link User to Holds--><g class="link" data-entity-1="User" data-entity-2="Holds" data-source-line="47" data-uid="lnk55" id="link_User_Holds"><path d="M229.49,246.3 C244.95,215.64 280.68,157.94 330.7,157.94 C330.7,157.94 330.7,157.94 943.09,157.94 C964.1,157.94 987.36,157.94 1007.13,157.94" fill="none" id="User-Holds" style="stroke:#181818;stroke-width:1;"/><text fill="#000000" font-family="sans-serif" font-size="11" lengthAdjust="spacing" textLength="8.2285" x="652.01" y="155.1504">N</text></g><!--link Holds to Recipe--><g class="link" data-entity-1="Holds" data-entity-2="Recipe" data-source-line="48" data-uid="lnk56" id="link_Holds_Recipe"><path d="M1096.04,154.38 C1143.17,150.03 1223.93,142.1 1292.99,132.94 C1313.24,130.25 1335.86,126.65 1353.81,123.64" fill="none" id="Holds-Recipe" style="stroke:#181818;stroke-width:1;"/><text fill="#000000" font-family="sans-serif" font-size="11" lengthAdjust="spacing" textLength="9.4907" x="1223.6" y="130.1504">M</text></g><!--link Household to Holds--><g class="link" data-entity-1="Household" data-entity-2="Holds" data-source-line="49" data-uid="lnk57" id="link_Household_Holds"><path d="M857.52,289.54 C903.22,258.96 993.79,198.33 1034.05,171.39" fill="none" id="Household-Holds" style="stroke:#181818;stroke-width:1;"/><text fill="#000000" font-family="sans-serif" font-size="11" lengthAdjust="spacing" textLength="8.2285" x="938.09" y="227.1504">N</text></g><!--SRC=[RLB1JkCm4BtFLymH3a5Rn2A444Abi50Qw9OjTpUPDXR9kBATLXNYtzTsdAGRhK-UD_FytipupbYXRLOGGqbhYrQXbfl2OYurPLOg1Y2sqXvmQKZZ5w0xuVeymPkRJphStWRiLLJK9RaD7YeXot2R24kerZYMsXO1cGjZzahdyDrAFAdQKA7AFEhqyK0ifMf5slJCkM2h3v4MWm4dei5dntksL9b8y_SXAM1TQxzh4MX7vHmQ2y3RdacxfpMLma_E578RdKQ5XIgFj1UKoIsrgIOOo4TqhFB3SHnx-4VeoOt9TpA0xnLR8Va_6MUtGSCsazSaUeLeEKcJVW7Gho8P9O4BuG5VrKmMue1zlbM5JjxNDSE6NZ1uXiQvBsZQEzRgYk2EE0__5EQb4rgcCzovB-2wmT7P-O_pdsTNAx9YTBBaJrPxnanLMraIMbdHAPpyci_Gg5fdvFwsiLgkQZ-AKvYAdS15pRxk6j-snDF9ImlW0- -aLbovdS7q8-qBBY-IiRJuJjhPm8yK9hGMTMaT8rEvvCqrBlyy9bSm4xofnSQzxSpVgzeFoUNU_m80]--></g></svg>